<svg width="20" height="21" viewBox="0 0 20 21" fill="none" xmlns="http://www.w3.org/2000/svg">
<path d="M8.125 16.25V16.875L10.9766 14.7656C11.2891 14.5052 11.6536 14.375 12.0703 14.375H17.5C17.8906 14.349 18.099 14.1406 18.125 13.75V2.5C18.099 2.10938 17.8906 1.90104 17.5 1.875H2.5C2.10938 1.90104 1.90104 2.10938 1.875 2.5V13.75C1.90104 14.1406 2.10938 14.349 2.5 14.375H6.25C6.77083 14.401 7.21354 14.5833 7.57812 14.9219C7.91667 15.2865 8.09896 15.7292 8.125 16.25ZM8.125 19.2188L7.92969 19.375L7.26562 19.8828C7.05729 20.013 6.83594 20.026 6.60156 19.9219C6.36719 19.8177 6.25 19.6354 6.25 19.375V18.5547V18.2812V18.125V16.25H4.375H2.5C1.79688 16.224 1.21094 15.9766 0.742188 15.5078C0.273438 15.0391 0.0260417 14.4531 0 13.75V2.5C0.0260417 1.79688 0.273438 1.21094 0.742188 0.742188C1.21094 0.273438 1.79688 0.0260417 2.5 0H17.5C18.2031 0.0260417 18.7891 0.273438 19.2578 0.742188C19.7266 1.21094 19.974 1.79688 20 2.5V13.75C19.974 14.4531 19.7266 15.0391 19.2578 15.5078C18.7891 15.9766 18.2031 16.224 17.5 16.25H12.0703L8.125 19.2188ZM9.0625 11.5625V9.0625H6.5625C5.98958 9.01042 5.67708 8.69792 5.625 8.125C5.67708 7.55208 5.98958 7.23958 6.5625 7.1875H9.0625V4.6875C9.11458 4.11458 9.42708 3.80208 10 3.75C10.5729 3.80208 10.8854 4.11458 10.9375 4.6875V7.1875H13.4375C14.0104 7.23958 14.3229 7.55208 14.375 8.125C14.3229 8.69792 14.0104 9.01042 13.4375 9.0625H10.9375V11.5625C10.8854 12.1354 10.5729 12.4479 10 12.5C9.42708 12.4479 9.11458 12.1354 9.0625 11.5625Z" fill="#0768AC"/>
</svg>
