<svg width="18" height="20" viewBox="0 0 18 20" fill="none" xmlns="http://www.w3.org/2000/svg">
<path d="M14.3359 2.65625C13.7891 2.16146 13.1771 1.91406 12.5 1.91406C11.7969 1.91406 11.1849 2.16146 10.6641 2.65625L3.16406 10.1562C2.30469 11.0417 1.875 12.0703 1.875 13.2422C1.875 14.4141 2.30469 15.4427 3.16406 16.3281C4.04948 17.1875 5.07812 17.6172 6.25 17.6172C7.42188 17.6172 8.45052 17.1875 9.33594 16.3281L15.2734 10.3906C15.7161 10.026 16.1589 10.026 16.6016 10.3906C16.9661 10.8333 16.9661 11.276 16.6016 11.7188L10.6641 17.6562C9.38802 18.8802 7.91667 19.4922 6.25 19.4922C4.58333 19.4922 3.11198 18.8802 1.83594 17.6562C0.611979 16.3802 0 14.9089 0 13.2422C0 11.5755 0.611979 10.1042 1.83594 8.82812L9.33594 1.32812C10.2474 0.442708 11.3021 0 12.5 0C13.6979 0 14.7526 0.442708 15.6641 1.32812C16.5495 2.23958 16.9922 3.29427 16.9922 4.49219C16.9922 5.6901 16.5495 6.74479 15.6641 7.65625L8.47656 14.8438C7.82552 15.4427 7.08333 15.7292 6.25 15.7031C5.41667 15.651 4.71354 15.2865 4.14062 14.6094C3.67188 13.9844 3.45052 13.3203 3.47656 12.6172C3.52865 11.888 3.8151 11.25 4.33594 10.7031L10.2734 4.76562C10.7161 4.40104 11.1589 4.40104 11.6016 4.76562C11.9661 5.20833 11.9661 5.65104 11.6016 6.09375L5.66406 12.0312C5.27344 12.474 5.2474 12.9427 5.58594 13.4375C5.79427 13.6719 6.05469 13.8021 6.36719 13.8281C6.65365 13.8281 6.91406 13.724 7.14844 13.5156L14.3359 6.32812C14.8568 5.78125 15.1172 5.16927 15.1172 4.49219C15.1172 3.78906 14.8568 3.17708 14.3359 2.65625Z" fill="#0768AC"/>
</svg>
