<svg width="14" height="14" viewBox="0 0 14 14" fill="none" xmlns="http://www.w3.org/2000/svg">
<path d="M1.3125 1.9375V3.25V1.9375V3.25H12.6875V1.9375H1.3125ZM0.875 0.625H13.125H0.875H13.125C13.3802 0.625 13.5898 0.707031 13.7539 0.871094C13.918 1.03516 14 1.24479 14 1.5V3.6875C14 3.94271 13.918 4.15234 13.7539 4.31641C13.5898 4.48047 13.3802 4.5625 13.125 4.5625H0.875C0.619792 4.5625 0.410156 4.48047 0.246094 4.31641C0.0820312 4.15234 0 3.94271 0 3.6875V1.5C0 1.24479 0.0820312 1.03516 0.246094 0.871094C0.410156 0.707031 0.619792 0.625 0.875 0.625ZM4.375 6.53125C4.41146 6.13021 4.63021 5.91146 5.03125 5.875H8.96875C9.36979 5.91146 9.58854 6.13021 9.625 6.53125C9.58854 6.93229 9.36979 7.15104 8.96875 7.1875H5.03125C4.63021 7.15104 4.41146 6.93229 4.375 6.53125ZM0.875 11.125V5.4375V11.125V5.4375H2.1875V11.125C2.20573 11.3984 2.35156 11.5443 2.625 11.5625H11.375C11.6484 11.5443 11.7943 11.3984 11.8125 11.125V5.4375H13.125V11.125C13.1068 11.6172 12.9336 12.0273 12.6055 12.3555C12.2773 12.6836 11.8672 12.8568 11.375 12.875H2.625C2.13281 12.8568 1.72266 12.6836 1.39453 12.3555C1.06641 12.0273 0.893229 11.6172 0.875 11.125Z" fill="#64748B"/>
</svg>
