<svg width="15" height="15" viewBox="0 0 15 15" fill="none" xmlns="http://www.w3.org/2000/svg">
<path d="M10.0625 5.6875C10.0625 4.90365 9.87109 4.17448 9.48828 3.5C9.08724 2.82552 8.54948 2.28776 7.875 1.88672C7.18229 1.50391 6.45312 1.3125 5.6875 1.3125C4.92188 1.3125 4.19271 1.50391 3.5 1.88672C2.82552 2.28776 2.28776 2.82552 1.88672 3.5C1.50391 4.17448 1.3125 4.90365 1.3125 5.6875C1.3125 6.47135 1.50391 7.20052 1.88672 7.875C2.28776 8.54948 2.82552 9.08724 3.5 9.48828C4.19271 9.87109 4.92188 10.0625 5.6875 10.0625C6.45312 10.0625 7.18229 9.87109 7.875 9.48828C8.54948 9.08724 9.08724 8.54948 9.48828 7.875C9.87109 7.20052 10.0625 6.47135 10.0625 5.6875ZM9.21484 10.1445C8.23047 10.9466 7.05469 11.3568 5.6875 11.375C4.08333 11.3385 2.74349 10.7826 1.66797 9.70703C0.592448 8.63151 0.0364583 7.29167 0 5.6875C0.0364583 4.08333 0.592448 2.74349 1.66797 1.66797C2.74349 0.592448 4.08333 0.0364583 5.6875 0C7.29167 0.0364583 8.63151 0.592448 9.70703 1.66797C10.7826 2.74349 11.3385 4.08333 11.375 5.6875C11.3568 7.05469 10.9466 8.23047 10.1445 9.21484L13.8086 12.8789C14.0638 13.1888 14.0638 13.4987 13.8086 13.8086C13.4987 14.0638 13.1888 14.0638 12.8789 13.8086L9.21484 10.1445Z" fill="#334155"/>
</svg>
