<svg width="16" height="16" viewBox="0 0 16 16" fill="none" xmlns="http://www.w3.org/2000/svg">
<path d="M4.53906 7.09375H11.3477L2.67969 3.375L4.53906 7.09375L2.67969 3.375L4.53906 7.09375ZM4.53906 8.40625L2.67969 12.125L11.3477 8.40625H4.53906H11.3477H4.53906ZM2.10547 1.70703L14.3555 6.95703C14.6836 7.12109 14.8568 7.38542 14.875 7.75C14.8568 8.13281 14.6836 8.40625 14.3555 8.57031L2.10547 13.8203C1.72266 13.9479 1.39453 13.875 1.12109 13.6016C0.865885 13.3099 0.811198 12.9818 0.957031 12.6172L3.39062 7.75L0.957031 2.88281C0.811198 2.51823 0.865885 2.1901 1.12109 1.89844C1.39453 1.625 1.72266 1.5612 2.10547 1.70703Z" fill="white"/>
</svg>
